:FULLY-SPECIFIED
:FORCE-ALL-JOINTS-BE-3DOF
:DEGREES
1
root 6.24314 16.836 -28.1378 9.0217 -2.52979 -3.05774
lfemur -20.3712 2.30257 -19.9954
ltibia 35.927 0 0
lfoot -38.654 3.93715 0
ltoes 38.9541 0 0
rfemur -19.4747 0.22019 19.5256
rtibia 36.0342 0 0
rfoot -30.3779 -10.4967 0
rtoes 21.4483 0 0
lowerback -2.05144 3.66971 -5.03766
upperback -2.66728 5.00355 3.49279
thorax -2.36397 2.67023 6.42441
lowerneck -9.84699 -2.36864 1.94815
upperneck -1.37933 -3.32542 -1.65382
head 1.16433 -1.69823 -0.975663
lclavicle -1.65488e-14 -3.69739e-14 0
lhumerus -41.7253 -10.8128 99.8312
lradius 34.5094 0 0
lwrist 2.17521 0 0
lhand -10.5949 9.65639 0
lfingers 7.12502 0 0
lthumb 15.4107 39.062 0
rclavicle -1.65488e-14 -3.69739e-14 0
rhumerus -43.273 -4.86223 -84.2703
rradius 40.4763 0 0
rwrist 9.89469 0 0
rhand -23.7965 -22.476 0
rfingers 7.12502 0 0
rthumb 2.67393 -52.439 0
2
root 6.23446 16.84 -28.1306 9.07582 -2.60043 -3.01623
lfemur -20.3234 2.30387 -20.0138
ltibia 35.7992 -0 0
lfoot -38.5776 4.0147 0.000310403
ltoes 38.8979 -0 0
rfemur -19.3206 0.49374 19.499
rtibia 35.703 -0 0
rfoot -30.3361 -10.7471 -0.000547667
rtoes 21.4861 -0 0
lowerback -2.25789 3.6632 -4.96003
upperback -2.62913 5.00001 3.40619
thorax -2.1929 2.65846 6.30664
lowerneck -9.85594 -2.35674 1.98375
upperneck -1.42718 -3.31497 -1.59406
head 1.15096 -1.69197 -0.96197
lclavicle 0 0 0
lhumerus -41.7494 -10.8578 99.695
lradius 34.5885 -0 0
lwrist 2.29656 0 0
lhand -10.6874 8.84049 0.0039527
lfingers 0 -0 0
lthumb 15.3216 38.2528 0.00377619
rclavicle 0 0 0
rhumerus -43.1857 -4.88398 -84.426
rradius 40.4435 -0 0
rwrist 9.93871 0 0
rhand -23.8513 -22.4139 -0.000178226
rfingers 0 -0 0
rthumb 2.62101 -52.3775 -0.000170384
3
root 6.22578 16.8441 -28.1234 9.1299 -2.67111 -2.97479
lfemur -20.2756 2.30518 -20.0321
ltibia 35.6715 -0 0
lfoot -38.5011 4.09225 0.000517339
ltoes 38.8417 -0 0
rfemur -19.1666 0.767361 19.4732
rtibia 35.3718 -0 0
rfoot -30.2944 -10.9975 -0.000912784
rtoes 21.5239 -0 0
lowerback -2.46434 3.65697 -4.88237
upperback -2.59098 4.99653 3.31959
thorax -2.0218 2.64703 6.18884
lowerneck -9.86488 -2.34483 2.01934
upperneck -1.47502 -3.30446 -1.53432
head 1.13759 -1.68571 -0.948278
lclavicle 0 0 0
lhumerus -41.7733 -10.9029 99.5588
lradius 34.6675 -0 0
lwrist 2.41791 0 0
lhand -10.7799 8.02458 0.00658829
lfingers 0 -0 0
lthumb 15.2325 37.4436 0.00629407
rclavicle 0 0 0
rhumerus -43.0983 -4.90549 -84.5818
rradius 40.4107 -0 0
rwrist 9.98272 0 0
rhand -23.9061 -22.3518 -0.000297044
rfingers 0 -0 0
rthumb 2.56808 -52.316 -0.000283973
4
root 6.2171 16.8481 -28.1162 9.18392 -2.74183 -2.93341
lfemur -20.2278 2.30651 -20.0505
ltibia 35.5437 -0 0
lfoot -38.4247 4.1698 0.000620807
ltoes 38.7855 -0 0
rfemur -19.0128 1.04105 19.448
rtibia 35.0406 -0 0
rfoot -30.2526 -11.2479 -0.00109534
rtoes 21.5617 -0 0
lowerback -2.67081 3.65102 -4.80469
upperback -2.55283 4.99311 3.23299
thorax -1.85069 2.63596 6.07101
lowerneck -9.87381 -2.33292 2.05493
upperneck -1.52284 -3.29391 -1.47458
head 1.12422 -1.67944 -0.934588
lclavicle 0 0 0
lhumerus -41.7972 -10.948 99.4227
lradius 34.7466 -0 0
lwrist 2.53926 0 0
lhand -10.8724 7.20866 0.00790622
lfingers 0 -0 0
lthumb 15.1434 36.6344 0.00755313
rclavicle 0 0 0
rhumerus -43.0108 -4.92677 -84.7376
rradius 40.3779 -0 0
rwrist 10.0267 0 0
rhand -23.9609 -22.2897 -0.000356452
rfingers 0 -0 0
rthumb 2.51516 -52.2545 -0.000340768
5
root 6.20842 16.8521 -28.1089 9.2379 -2.81259 -2.89209
lfemur -20.18 2.30785 -20.0689
ltibia 35.4159 -0 0
lfoot -38.3482 4.24736 0.000620807
ltoes 38.7292 -0 0
rfemur -18.859 1.31481 19.4237
rtibia 34.7093 -0 0
rfoot -30.2108 -11.4983 -0.00109534
rtoes 21.5994 -0 0
lowerback -2.87728 3.64534 -4.727
upperback -2.51466 4.98975 3.14638
thorax -1.67955 2.62524 5.95315
lowerneck -9.88274 -2.321 2.09052
upperneck -1.57066 -3.28331 -1.41485
head 1.11086 -1.67317 -0.9209
lclavicle 0 0 0
lhumerus -41.8209 -10.9932 99.2865
lradius 34.8257 -0 0
lwrist 2.6606 0 0
lhand -10.965 6.39275 0.00790622
lfingers 0 -0 0
lthumb 15.0542 35.8251 0.00755313
rclavicle 0 0 0
rhumerus -42.9233 -4.94781 -84.8934
rradius 40.3451 -0 0
rwrist 10.0708 0 0
rhand -24.0157 -22.2275 -0.000356452
rfingers 0 -0 0
rthumb 2.46223 -52.1931 -0.000340768
6
root 6.19974 16.8561 -28.1017 9.29183 -2.88338 -2.85084
lfemur -20.1322 2.30921 -20.0873
ltibia 35.2881 -0 0
lfoot -38.2718 4.32491 0.000517339
ltoes 38.673 -0 0
rfemur -18.7054 1.58863 19.4
rtibia 34.3781 -0 0
rfoot -30.169 -11.7487 -0.000912784
rtoes 21.6372 -0 0
lowerback -3.08375 3.63995 -4.64928
upperback -2.4765 4.98644 3.05978
thorax -1.50839 2.61487 5.83526
lowerneck -9.89166 -2.30907 2.12611
upperneck -1.61846 -3.27265 -1.35513
head 1.09749 -1.6669 -0.907213
lclavicle 0 0 0
lhumerus -41.8445 -11.0384 99.1503
lradius 34.9048 -0 0
lwrist 2.78195 0 0
lhand -11.0575 5.57683 0.00658829
lfingers 0 -0 0
lthumb 14.9651 35.0159 0.00629407
rclavicle 0 0 0
rhumerus -42.8357 -4.96861 -85.0493
rradius 40.3123 -0 0
rwrist 10.1148 0 0
rhand -24.0705 -22.1654 -0.000297044
rfingers 0 -0 0
rthumb 2.40931 -52.1316 -0.000283973
7
root 6.19106 16.8602 -28.0945 9.34571 -2.95422 -2.80965
lfemur -20.0844 2.31058 -20.1056
ltibia 35.1604 -0 0
lfoot -38.1953 4.40246 0.000310403
ltoes 38.6168 -0 0
rfemur -18.5518 1.86251 19.3771
rtibia 34.0469 -0 0
rfoot -30.1273 -11.9991 -0.000547667
rtoes 21.675 -0 0
lowerback -3.29023 3.63483 -4.57154
upperback -2.43833 4.98319 2.97317
thorax -1.33722 2.60485 5.71733
lowerneck -9.90057 -2.29715 2.1617
upperneck -1.66625 -3.26195 -1.29542
head 1.08413 -1.66062 -0.893527
lclavicle 0 0 0
lhumerus -41.8681 -11.0837 99.0141
lradius 34.9838 -0 0
lwrist 2.9033 0 0
lhand -11.15 4.76092 0.0039527
lfingers 0 -0 0
lthumb 14.876 34.2067 0.00377619
rclavicle 0 0 0
rhumerus -42.7481 -4.98917 -85.2052
rradius 40.2795 -0 0
rwrist 10.1588 0 0
rhand -24.1253 -22.1033 -0.000178226
rfingers 0 -0 0
rthumb 2.35638 -52.0701 -0.000170384
8
root 6.18238 16.8642 -28.0873 9.39955 -3.02509 -2.76853
lfemur -20.0366 2.31197 -20.124
ltibia 35.0326 0 0
lfoot -38.1189 4.48001 0
ltoes 38.5606 0 0
rfemur -18.3983 2.13645 19.3549
rtibia 33.7157 0 0
rfoot -30.0855 -12.2495 0
rtoes 21.7128 0 0
lowerback -3.49672 3.63 -4.49379
upperback -2.40015 4.98 2.88656
thorax -1.16602 2.59519 5.59938
lowerneck -9.90947 -2.28521 2.19728
upperneck -1.71403 -3.2512 -1.23572
head 1.07077 -1.65434 -0.879843
lclavicle 5.7896e-14 3.22031e-14 0
lhumerus -41.8915 -11.129 98.8779
lradius 35.0629 0 0
lwrist 3.02465 0 0
lhand -11.2425 3.94502 0
lfingers 7.12502 0 0
lthumb 14.7869 33.3975 0
rclavicle 5.7896e-14 3.22031e-14 0
rhumerus -42.6604 -5.0095 -85.3612
rradius 40.2467 0 0
rwrist 10.2028 0 0
rhand -24.1801 -22.0412 0
rfingers 7.12502 0 0
rthumb 2.30346 -52.0086 0
9
root 6.17394 16.8666 -28.0852 9.42321 -2.95487 -2.76134
lfemur -20.0321 2.26698 -20.0911
ltibia 34.972 -0 0
lfoot -38.0303 4.47056 -4.38257e-05
ltoes 38.5096 -0 0
rfemur -18.2735 2.40103 19.3753
rtibia 33.4951 -0 0
rfoot -29.971 -12.5888 -0.00203387
rtoes 21.4077 -0 0
lowerback -3.58512 3.57039 -4.33316
upperback -2.37697 4.89812 2.81319
thorax -1.06284 2.54694 5.43929
lowerneck -9.89914 -2.25649 2.20756
upperneck -1.77107 -3.21497 -1.17919
head 1.05192 -1.6354 -0.861582
lclavicle 0 0 0
lhumerus -41.8974 -11.1906 98.7814
lradius 35.1432 -0 0
lwrist 3.09602 0 0
lhand -11.266 3.88083 7.88426e-05
lfingers 0 -0 0
lthumb 14.7643 33.335 7.40091e-05
rclavicle 0 0 0
rhumerus -42.5441 -5.00991 -85.5069
rradius 40.2133 -0 0
rwrist 10.2292 0 0
rhand -24.4298 -21.8246 -0.00283217
rfingers 0 -0 0
rthumb 2.06233 -51.7936 -0.00271464
10
root 6.1655 16.8689 -28.083 9.44688 -2.88466 -2.75412
lfemur -20.0276 2.22198 -20.0582
ltibia 34.9113 -0 0
lfoot -37.9417 4.46111 -7.30429e-05
ltoes 38.4587 -0 0
rfemur -18.1486 2.66556 19.3963
rtibia 33.2745 -0 0
rfoot -29.8565 -12.9281 -0.00338983
rtoes 21.1026 -0 0
lowerback -3.67368 3.51103 -4.17246
upperback -2.35369 4.81628 2.7398
thorax -0.959528 2.49899 5.27912
lowerneck -9.88881 -2.22777 2.21784
upperneck -1.82807 -3.17869 -1.12269
head 1.03308 -1.61646 -0.843327
lclavicle 0 0 0
lhumerus -41.9031 -11.2522 98.6848
lradius 35.2235 -0 0
lwrist 3.16738 0 0
lhand -11.2894 3.81663 0.000131404
lfingers 0 -0 0
lthumb 14.7417 33.2724 0.000123349
rclavicle 0 0 0
rhumerus -42.4278 -5.01003 -85.6526
rradius 40.18 -0 0
rwrist 10.2556 0 0
rhand -24.6794 -21.6079 -0.00472033
rfingers 0 -0 0
rthumb 1.82119 -51.5786 -0.00452444
11
root 6.15706 16.8713 -28.0809 9.47056 -2.81445 -2.74687
lfemur -20.0232 2.17698 -20.0254
ltibia 34.8507 -0 0
lfoot -37.8531 4.45166 -8.76515e-05
ltoes 38.4077 -0 0
rfemur -18.0235 2.93005 19.4179
rtibia 33.0539 -0 0
rfoot -29.742 -13.2674 -0.00406783
rtoes 20.7975 -0 0
lowerback -3.7624 3.45192 -4.01167
upperback -2.3303 4.73446 2.66638
thorax -0.856086 2.45132 5.11888
lowerneck -9.87848 -2.19906 2.22812
upperneck -1.88504 -3.14234 -1.06624
head 1.01424 -1.59751 -0.825079
lclavicle 0 0 0
lhumerus -41.9088 -11.3138 98.5883
lradius 35.3038 -0 0
lwrist 3.23875 0 0
lhand -11.3129 3.75244 0.000157685
lfingers 0 -0 0
lthumb 14.7191 33.2099 0.000148018
rclavicle 0 0 0
rhumerus -42.3115 -5.00985 -85.7983
rradius 40.1466 -0 0
rwrist 10.282 0 0
rhand -24.9291 -21.3913 -0.00566443
rfingers 0 -0 0
rthumb 1.58005 -51.3636 -0.00542936
12
root 6.14862 16.8737 -28.0788 9.49424 -2.74424 -2.7396
lfemur -20.0187 2.13198 -19.9925
ltibia 34.7901 -0 0
lfoot -37.7646 4.44222 -8.76515e-05
ltoes 38.3568 -0 0
rfemur -17.8984 3.19449 19.4401
rtibia 32.8333 -0 0
rfoot -29.6276 -13.6066 -0.00406783
rtoes 20.4925 -0 0
lowerback -3.85128 3.39305 -3.8508
upperback -2.30682 4.65268 2.59294
thorax -0.752515 2.40394 4.95855
lowerneck -9.86813 -2.17034 2.23842
upperneck -1.94197 -3.10595 -1.00982
head 0.995416 -1.57855 -0.806837
lclavicle 0 0 0
lhumerus -41.9143 -11.3754 98.4917
lradius 35.3842 -0 0
lwrist 3.31012 0 0
lhand -11.3363 3.68825 0.000157685
lfingers 0 -0 0
lthumb 14.6965 33.1473 0.000148018
rclavicle 0 0 0
rhumerus -42.1951 -5.00938 -85.9439
rradius 40.1133 -0 0
rwrist 10.3083 0 0
rhand -25.1788 -21.1746 -0.00566443
rfingers 0 -0 0
rthumb 1.3389 -51.1486 -0.00542936
13
root 6.14018 16.8761 -28.0767 9.51793 -2.67403 -2.73229
lfemur -20.0143 2.08698 -19.9596
ltibia 34.7295 -0 0
lfoot -37.676 4.43277 -7.30429e-05
ltoes 38.3058 -0 0
rfemur -17.7731 3.45888 19.4628
rtibia 32.6127 -0 0
rfoot -29.5131 -13.9459 -0.00338983
rtoes 20.1874 -0 0
lowerback -3.94032 3.33444 -3.68985
upperback -2.28323 4.57092 2.51947
thorax -0.648815 2.35685 4.79814
lowerneck -9.85779 -2.14163 2.24871
upperneck -1.99886 -3.06949 -0.953437
head 0.976593 -1.55959 -0.788601
lclavicle 0 0 0
lhumerus -41.9197 -11.437 98.3951
lradius 35.4645 -0 0
lwrist 3.38149 0 0
lhand -11.3598 3.62406 0.000131404
lfingers 0 -0 0
lthumb 14.6739 33.0848 0.000123349
rclavicle 0 0 0
rhumerus -42.0788 -5.00862 -86.0896
rradius 40.0799 -0 0
rwrist 10.3347 0 0
rhand -25.4285 -20.958 -0.00472033
rfingers 0 -0 0
rthumb 1.09776 -50.9336 -0.00452444
